<?xml version="1.0" encoding="UTF-8"?>
<svg width="1200" height="600" viewBox="0 0 1200 600" fill="none" xmlns="http://www.w3.org/2000/svg">
    <defs>
        <!-- Enhanced gradients -->
        <linearGradient id="heroGradient" x1="0" y1="0" x2="1200" y2="600" gradientUnits="userSpaceOnUse">
            <stop offset="0%" style="stop-color:#0f2f1c"/>
            <stop offset="40%" style="stop-color:#1a472a"/>
            <stop offset="70%" style="stop-color:#153d23"/>
            <stop offset="100%" style="stop-color:#0a1f12"/>
        </linearGradient>
        
        <!-- Accent gradients -->
        <linearGradient id="accentGradient1" x1="600" y1="0" x2="600" y2="600" gradientUnits="userSpaceOnUse">
            <stop offset="0%" style="stop-color:#4a9171;stop-opacity:0.9"/>
            <stop offset="100%" style="stop-color:#2d724c;stop-opacity:0.3"/>
        </linearGradient>

        <linearGradient id="accentGradient2" x1="0" y1="300" x2="1200" y2="300" gradientUnits="userSpaceOnUse">
            <stop offset="0%" style="stop-color:#6ab795;stop-opacity:0"/>
            <stop offset="50%" style="stop-color:#6ab795;stop-opacity:0.2"/>
            <stop offset="100%" style="stop-color:#6ab795;stop-opacity:0"/>
        </linearGradient>

        <!-- Glows -->
        <filter id="glow1" x="-50%" y="-50%" width="200%" height="200%">
            <feGaussianBlur in="SourceGraphic" stdDeviation="3"/>
            <feComposite in="SourceGraphic" operator="over"/>
        </filter>

        <filter id="glow2" x="-50%" y="-50%" width="200%" height="200%">
            <feGaussianBlur in="SourceGraphic" stdDeviation="15"/>
            <feComposite in="SourceGraphic" operator="over"/>
        </filter>
    </defs>

    <!-- Base background -->
    <rect width="1200" height="600" fill="url(#heroGradient)"/>

    <!-- Abstract growth pattern -->
    <path d="M 0,400 C 200,380 400,420 600,380 S 1000,400 1200,360" 
          stroke="url(#accentGradient1)" 
          stroke-width="3"
          fill="none"
          opacity="0.6"/>

    <path d="M 0,420 C 200,400 400,440 600,400 S 1000,420 1200,380" 
          stroke="url(#accentGradient1)" 
          stroke-width="2"
          fill="none"
          opacity="0.4"/>

    <!-- Geometric elements -->
    <g opacity="0.15">
        <path d="M 100,100 L 300,50 L 500,150 L 700,100 L 900,200 L 1100,150" 
              stroke="#4a9171" 
              stroke-width="2"
              fill="none"/>
        <path d="M 0,200 L 200,250 L 400,200 L 600,300 L 800,250 L 1000,300 L 1200,250" 
              stroke="#4a9171" 
              stroke-width="2"
              fill="none"/>
    </g>

    <!-- Dynamic flowing lines -->
    <g opacity="0.2">
        <path d="M -100,150 C 100,100 300,200 500,150 S 900,200 1300,150" 
              stroke="#2d724c" 
              stroke-width="1.5"
              fill="none"/>
        <path d="M -100,250 C 100,200 300,300 500,250 S 900,300 1300,250" 
              stroke="#2d724c" 
              stroke-width="1.5"
              fill="none"/>
    </g>

    <!-- Glowing particles -->
    <g filter="url(#glow1)">
        <circle cx="200" cy="150" r="3" fill="#6ab795" opacity="0.8"/>
        <circle cx="400" cy="200" r="2" fill="#6ab795" opacity="0.6"/>
        <circle cx="600" cy="150" r="4" fill="#6ab795" opacity="0.7"/>
        <circle cx="800" cy="250" r="3" fill="#6ab795" opacity="0.6"/>
        <circle cx="1000" cy="200" r="2" fill="#6ab795" opacity="0.8"/>
    </g>

    <!-- Large glowing orbs -->
    <g filter="url(#glow2)" opacity="0.15">
        <circle cx="300" cy="300" r="100" fill="url(#accentGradient2)"/>
        <circle cx="900" cy="200" r="150" fill="url(#accentGradient2)"/>
    </g>

    <!-- Sacred geometry elements -->
    <g opacity="0.1">
        <!-- Golden spiral suggestion -->
        <path d="M 700,400 Q 800,400 800,300 T 900,200" 
              stroke="#6ab795" 
              stroke-width="2"
              fill="none"/>
        <path d="M 680,420 Q 780,420 780,320 T 880,220" 
              stroke="#6ab795" 
              stroke-width="1.5"
              fill="none"/>
    </g>

    <!-- Additional decorative elements -->
    <g opacity="0.2">
        <line x1="100" y1="500" x2="300" y2="450" stroke="#4a9171" stroke-width="2"/>
        <line x1="500" y1="480" x2="700" y2="430" stroke="#4a9171" stroke-width="2"/>
        <line x1="900" y1="460" x2="1100" y2="410" stroke="#4a9171" stroke-width="2"/>
    </g>

    <!-- Overlay gradient for depth -->
    <rect width="1200" height="600" fill="url(#accentGradient2)" opacity="0.1"/>
</svg> 